<svg width="150" height="72" viewBox="0 0 207 72" fill="none" xmlns="http://www.w3.org/2000/svg">
<path d="M73.002 45.9626C73.002 44.6432 74.0715 43.5737 75.3908 43.5737C76.7101 43.5737 77.7796 44.6432 77.7796 45.9626C77.7796 47.2819 76.7101 48.3514 75.3908 48.3514C74.0715 48.3514 73.002 47.2819 73.002 45.9626Z" fill="#273036"/>
<path d="M73.002 45.9626C73.002 44.6432 74.0715 43.5737 75.3908 43.5737C76.7101 43.5737 77.7796 44.6432 77.7796 45.9626C77.7796 47.2819 76.7101 48.3514 75.3908 48.3514C74.0715 48.3514 73.002 47.2819 73.002 45.9626Z" stroke="black"/>
<path d="M38.3789 39.1877C38.3789 40.3942 38.1413 41.589 37.6795 42.7037C37.2178 43.8184 36.541 44.8313 35.6878 45.6844C34.8347 46.5376 33.8218 47.2144 32.7071 47.6761C31.5924 48.1378 30.3976 48.3755 29.1911 48.3755C27.9845 48.3755 26.7897 48.1378 25.675 47.6761C24.5603 47.2144 23.5474 46.5376 22.6943 45.6844C21.8411 44.8312 21.1643 43.8184 20.7026 42.7037C20.2409 41.5889 20.0032 40.3942 20.0032 39.1876L24.7697 39.1876C24.7697 39.7683 24.8841 40.3432 25.1063 40.8796C25.3285 41.416 25.6541 41.9034 26.0647 42.314C26.4753 42.7246 26.9627 43.0502 27.4991 43.2724C28.0355 43.4946 28.6104 43.609 29.1911 43.609C29.7717 43.609 30.3466 43.4946 30.883 43.2724C31.4195 43.0502 31.9069 42.7246 32.3174 42.314C32.728 41.9035 33.0537 41.4161 33.2759 40.8796C33.4981 40.3432 33.6124 39.7683 33.6124 39.1877L38.3789 39.1877Z" fill="#273036"/>
<path d="M38.3789 39.1888C38.3789 40.5081 37.3094 41.5776 35.9901 41.5776C34.6708 41.5776 33.6012 40.5081 33.6012 39.1888V34.5949C33.6012 32.0577 35.658 30.001 38.1952 30.001H38.3789V39.1888Z" fill="#273036"/>
<path d="M38.3789 39.1888C38.3789 40.5081 37.3094 41.5776 35.9901 41.5776C34.6708 41.5776 33.6012 40.5081 33.6012 39.1888V34.5949C33.6012 32.0577 35.658 30.001 38.1952 30.001H38.3789V39.1888Z" stroke="black"/>
<path d="M24.7773 39.1888C24.7773 40.5081 23.7078 41.5776 22.3885 41.5776C21.0692 41.5776 19.9997 40.5081 19.9997 39.1888V30.001H20.1834C22.7206 30.001 24.7773 32.0577 24.7773 34.5949V39.1888Z" fill="#273036"/>
<path d="M24.7773 39.1888C24.7773 40.5081 23.7078 41.5776 22.3885 41.5776C21.0692 41.5776 19.9997 40.5081 19.9997 39.1888V30.001H20.1834C22.7206 30.001 24.7773 32.0577 24.7773 34.5949V39.1888Z" stroke="black"/>
<path d="M12.7695 14C15.7818 14 18.2237 16.4419 18.2237 19.4542V47.8462C15.2115 47.8462 12.7695 45.4043 12.7695 42.392V14Z" fill="#273036"/>
<path d="M12.7695 14C15.7818 14 18.2237 16.4419 18.2237 19.4542V47.8462C15.2115 47.8462 12.7695 45.4043 12.7695 42.392V14Z" stroke="black"/>
<path d="M1 19.4546C1 16.4423 3.44193 14.0004 6.45419 14.0004L29.8498 14.0004C29.8498 17.0127 27.4079 19.4546 24.3956 19.4546H1Z" fill="#273036"/>
<path d="M1 19.4546C1 16.4423 3.44193 14.0004 6.45419 14.0004L29.8498 14.0004C29.8498 17.0127 27.4079 19.4546 24.3956 19.4546H1Z" stroke="black"/>
<path d="M50.1882 30.0005C48.9816 30.0005 47.7868 30.2381 46.672 30.6999C45.5572 31.1616 44.5443 31.8384 43.6911 32.6916C42.8379 33.5448 42.1612 34.5577 41.6994 35.6725C41.2377 36.7873 41 37.982 41 39.1887L45.7667 39.1886C45.7667 38.608 45.881 38.0331 46.1032 37.4966C46.3254 36.9602 46.6511 36.4728 47.0617 36.0622C47.4723 35.6516 47.9597 35.3259 48.4961 35.1037C49.0326 34.8815 49.6075 34.7671 50.1882 34.7671L50.1882 30.0005Z" fill="#273036"/>
<path d="M41 39.1878C41 37.8684 42.0696 36.7988 43.3889 36.7988C44.7083 36.7988 45.7778 37.8684 45.7778 39.1878V43.9982C45.7778 46.4159 43.8179 48.3759 41.4001 48.3759H41V39.1878Z" fill="#273036"/>
<path d="M41 39.1878C41 37.8684 42.0696 36.7988 43.3889 36.7988C44.7083 36.7988 45.7778 37.8684 45.7778 39.1878V43.9982C45.7778 46.4159 43.8179 48.3759 41.4001 48.3759H41V39.1878Z" stroke="black"/>
<path d="M50.1895 30H54.9673V30.4001C54.9673 32.8179 53.0073 34.7778 50.5896 34.7778H50.1895V30Z" fill="#273036"/>
<path d="M50.1895 30H54.9673V30.4001C54.9673 32.8179 53.0073 34.7778 50.5896 34.7778H50.1895V30Z" stroke="black"/>
<path d="M56.2578 23.7612H56.4416C58.9787 23.7612 61.0355 25.818 61.0355 28.3551V36.9917C61.0355 38.311 59.966 39.3806 58.6467 39.3806C57.3273 39.3806 56.2578 38.311 56.2578 36.9917V23.7612Z" fill="#273036"/>
<path d="M56.2578 23.7612H56.4416C58.9787 23.7612 61.0355 25.818 61.0355 28.3551V36.9917C61.0355 38.311 59.966 39.3806 58.6467 39.3806C57.3273 39.3806 56.2578 38.311 56.2578 36.9917V23.7612Z" stroke="black"/>
<path d="M61.0371 47.832H60.8534C58.3162 47.832 56.2594 45.7753 56.2594 43.2381V34.6015C56.2594 33.2822 57.329 32.2127 58.6483 32.2127C59.9676 32.2127 61.0371 33.2822 61.0371 34.6015V47.832Z" fill="#273036"/>
<path d="M61.0371 47.832H60.8534C58.3162 47.832 56.2594 45.7753 56.2594 43.2381V34.6015C56.2594 33.2822 57.329 32.2127 58.6483 32.2127C59.9676 32.2127 61.0371 33.2822 61.0371 34.6015V47.832Z" stroke="black"/>
<path d="M64.7927 32.3235C63.8607 33.0898 63.0887 34.0322 62.5208 35.0968C61.953 36.1614 61.6004 37.3275 61.4832 38.5284C61.366 39.7293 61.4864 40.9415 61.8377 42.0959C62.189 43.2502 62.7642 44.3241 63.5305 45.2561L67.2125 42.2289C66.8437 41.7804 66.5669 41.2637 66.3979 40.7082C66.2289 40.1527 66.1709 39.5693 66.2273 38.9914C66.2837 38.4135 66.4534 37.8524 66.7266 37.3401C66.9999 36.8278 67.3714 36.3743 67.8199 36.0056L64.7927 32.3235Z" fill="#273036"/>
<path d="M63.5308 45.256C62.6929 44.2368 62.8399 42.7314 63.859 41.8935C64.8781 41.0556 66.3836 41.2025 67.2215 42.2217L70.2765 45.9375C71.8119 47.8051 71.5426 50.5638 69.6751 52.0993L69.366 52.3534L63.5308 45.256Z" fill="#273036"/>
<path d="M63.5308 45.256C62.6929 44.2368 62.8399 42.7314 63.859 41.8935C64.8781 41.0556 66.3836 41.2025 67.2215 42.2217L70.2765 45.9375C71.8119 47.8051 71.5426 50.5638 69.6751 52.0993L69.366 52.3534L63.5308 45.256Z" stroke="black"/>
<path d="M64.7949 32.3228L68.4856 29.2885L68.7397 29.5976C70.2751 31.4651 70.0059 34.2238 68.1383 35.7593L67.8292 36.0134L64.7949 32.3228Z" fill="#273036"/>
<path d="M64.7949 32.3228L68.4856 29.2885L68.7397 29.5976C70.2751 31.4651 70.0059 34.2238 68.1383 35.7593L67.8292 36.0134L64.7949 32.3228Z" stroke="black"/>
<path d="M88.6172 48.2427V43.465H93.2083C95.7455 43.465 97.8023 45.5218 97.8023 48.0589V48.2427H88.6172Z" fill="#273036"/>
<path d="M88.6172 48.2427V43.465H93.2083C95.7455 43.465 97.8023 45.5218 97.8023 48.0589V48.2427H88.6172Z" stroke="black"/>
<path d="M88.6138 48.2422C86.7971 48.2422 85.0213 47.7033 83.5108 46.6938C82.0003 45.6842 80.8231 44.2492 80.1279 42.5704C79.4327 40.8915 79.2508 39.0442 79.6052 37.2619C79.9596 35.4796 80.8344 33.8425 82.1189 32.5576C83.4035 31.2726 85.0401 30.3976 86.8218 30.0431C88.6036 29.6885 90.4504 29.8705 92.1287 30.5659C93.8071 31.2613 95.2416 32.4389 96.2509 33.9499C97.2601 35.4608 97.7988 37.2372 97.7988 39.0544L93.0338 39.0544C93.0338 38.1799 92.7745 37.3251 92.2889 36.598C91.8032 35.8709 91.1129 35.3042 90.3052 34.9696C89.4976 34.6349 88.6089 34.5474 87.7515 34.718C86.8941 34.8886 86.1065 35.3097 85.4883 35.928C84.8702 36.5463 84.4492 37.3341 84.2787 38.1918C84.1081 39.0494 84.1957 39.9384 84.5302 40.7463C84.8647 41.5542 85.4313 42.2447 86.1581 42.7306C86.885 43.2164 87.7396 43.4757 88.6138 43.4757L88.6138 48.2422Z" fill="#273036"/>
<path d="M83.0548 41.407C81.7355 41.4149 80.6596 40.3519 80.6516 39.0326C80.6437 37.7133 81.7068 36.6374 83.0261 36.6294L95.391 36.5549C96.7103 36.547 97.7863 37.6101 97.7942 38.9293C97.8021 40.2486 96.7391 41.3246 95.4198 41.3325L83.0548 41.407Z" fill="#273036"/>
<path d="M83.0548 41.407C81.7355 41.4149 80.6596 40.3519 80.6516 39.0326C80.6437 37.7133 81.7068 36.6374 83.0261 36.6294L95.391 36.5549C96.7103 36.547 97.7863 37.6101 97.7942 38.9293C97.8021 40.2486 96.7391 41.3246 95.4198 41.3325L83.0548 41.407Z" stroke="black"/>
<path d="M162.389 48.2432V43.4655H166.98C169.517 43.4655 171.574 45.5223 171.574 48.0594V48.2432H162.389Z" fill="#273036"/>
<path d="M162.389 48.2432V43.4655H166.98C169.517 43.4655 171.574 45.5223 171.574 48.0594V48.2432H162.389Z" stroke="black"/>
<path d="M162.387 48.2427C160.571 48.2427 158.795 47.7038 157.284 46.6942C155.774 45.6847 154.596 44.2497 153.901 42.5709C153.206 40.892 153.024 39.0446 153.379 37.2624C153.733 35.4801 154.608 33.843 155.892 32.5581C157.177 31.2731 158.814 30.3981 160.595 30.0435C162.377 29.689 164.224 29.871 165.902 30.5664C167.581 31.2618 169.015 32.4394 170.024 33.9504C171.034 35.4613 171.572 37.2377 171.572 39.0548L166.807 39.0548C166.807 38.1804 166.548 37.3256 166.062 36.5985C165.577 35.8714 164.886 35.3047 164.079 34.9701C163.271 34.6354 162.382 34.5479 161.525 34.7185C160.667 34.889 159.88 35.3101 159.262 35.9285C158.644 36.5468 158.223 37.3346 158.052 38.1923C157.882 39.0499 157.969 39.9389 158.304 40.7468C158.638 41.5547 159.205 42.2452 159.932 42.7311C160.658 43.2169 161.513 43.4762 162.387 43.4762L162.387 48.2427Z" fill="#273036"/>
<path d="M156.826 41.408C155.507 41.4159 154.431 40.3529 154.423 39.0336C154.415 37.7143 155.478 36.6383 156.798 36.6304L169.163 36.5559C170.482 36.548 171.558 37.611 171.566 38.9303C171.574 40.2496 170.511 41.3256 169.191 41.3335L156.826 41.408Z" fill="#273036"/>
<path d="M156.826 41.408C155.507 41.4159 154.431 40.3529 154.423 39.0336C154.415 37.7143 155.478 36.6383 156.798 36.6304L169.163 36.5559C170.482 36.548 171.558 37.611 171.566 38.9303C171.574 40.2496 170.511 41.3256 169.191 41.3335L156.826 41.408Z" stroke="black"/>
<path d="M117.229 30.8174L117.076 30.7144C114.973 29.2949 112.118 29.8489 110.698 31.9518L102.711 43.7844C101.973 44.878 102.261 46.3629 103.354 47.1011C104.448 47.8393 105.933 47.5512 106.671 46.4576L117.229 30.8174Z" fill="#273036"/>
<path d="M117.229 30.8174L117.076 30.7144C114.973 29.2949 112.118 29.8489 110.698 31.9518L102.711 43.7844C101.973 44.878 102.261 46.3629 103.354 47.1011C104.448 47.8393 105.933 47.5512 106.671 46.4576L117.229 30.8174Z" stroke="black"/>
<path d="M94.9355 55.2998L95.0882 55.4028C97.1911 56.8223 100.047 56.2683 101.466 54.1654L109.453 42.3328C110.191 41.2392 109.903 39.7543 108.81 39.0161C107.716 38.2779 106.231 38.566 105.493 39.6596L94.9355 55.2998Z" fill="#273036"/>
<path d="M94.9355 55.2998L95.0882 55.4028C97.1911 56.8223 100.047 56.2683 101.466 54.1654L109.453 42.3328C110.191 41.2392 109.903 39.7543 108.81 39.0161C107.716 38.2779 106.231 38.566 105.493 39.6596L94.9355 55.2998Z" stroke="black"/>
<path d="M99.2383 30.8164L99.3906 30.7136C101.494 29.2941 104.349 29.8482 105.768 31.9511L110.6 39.1096C111.338 40.2031 111.05 41.6879 109.957 42.426C108.863 43.1642 107.378 42.876 106.64 41.7825L99.2383 30.8164Z" fill="#273036"/>
<path d="M99.2383 30.8164L99.3906 30.7136C101.494 29.2941 104.349 29.8482 105.768 31.9511L110.6 39.1096C111.338 40.2031 111.05 41.6879 109.957 42.426C108.863 43.1642 107.378 42.876 106.64 41.7825L99.2383 30.8164Z" stroke="black"/>
<path d="M116.668 48.0962L116.516 48.199C114.413 49.6185 111.557 49.0644 110.138 46.9615L105.306 39.803C104.568 38.7095 104.856 37.2247 105.949 36.4866C107.043 35.7484 108.528 36.0366 109.266 37.1301L116.668 48.0962Z" fill="#273036"/>
<path d="M116.668 48.0962L116.516 48.199C114.413 49.6185 111.557 49.0644 110.138 46.9615L105.306 39.803C104.568 38.7095 104.856 37.2247 105.949 36.4866C107.043 35.7484 108.528 36.0366 109.266 37.1301L116.668 48.0962Z" stroke="black"/>
<path d="M148.466 29.8657C147.259 29.8657 146.064 30.1034 144.949 30.5651C143.835 31.0269 142.822 31.7037 141.968 32.5569C141.115 33.4101 140.438 34.423 139.977 35.5377C139.515 36.6525 139.277 37.8473 139.277 39.0539L144.044 39.0539C144.044 38.4732 144.158 37.8983 144.381 37.3618C144.603 36.8254 144.928 36.338 145.339 35.9274C145.75 35.5168 146.237 35.1912 146.773 34.969C147.31 34.7467 147.885 34.6324 148.466 34.6324L148.466 29.8657Z" fill="#273036"/>
<path d="M139.277 39.054C139.277 37.7346 140.347 36.665 141.666 36.665C142.986 36.665 144.055 37.7346 144.055 39.054V43.8644C144.055 46.2822 142.095 48.2421 139.677 48.2421H139.277V39.054Z" fill="#273036"/>
<path d="M139.277 39.054C139.277 37.7346 140.347 36.665 141.666 36.665C142.986 36.665 144.055 37.7346 144.055 39.054V43.8644C144.055 46.2822 142.095 48.2421 139.677 48.2421H139.277V39.054Z" stroke="black"/>
<path d="M148.467 29.8657H153.245V30.2659C153.245 32.6836 151.285 34.6436 148.867 34.6436H148.467V29.8657Z" fill="#273036"/>
<path d="M148.467 29.8657H153.245V30.2659C153.245 32.6836 151.285 34.6436 148.867 34.6436H148.467V29.8657Z" stroke="black"/>
<path d="M137.419 39.0704C137.419 33.9874 133.306 29.8668 128.231 29.8668C123.157 29.8668 119.043 33.9874 119.043 39.0704C119.043 44.1534 123.157 48.2739 128.231 48.2739C133.306 48.2739 137.419 44.1534 137.419 39.0704ZM123.81 39.0704C123.81 36.6244 125.789 34.6415 128.231 34.6415C130.673 34.6415 132.653 36.6244 132.653 39.0704C132.653 41.5164 130.673 43.4993 128.231 43.4993C125.789 43.4993 123.81 41.5164 123.81 39.0704Z" fill="#273036"/>
<path d="M119.043 53.98H119.219C121.761 53.98 123.821 51.9197 123.821 49.3782V39.2503C123.821 37.931 122.751 36.8614 121.432 36.8614C120.113 36.8614 119.043 37.931 119.043 39.2503V53.98Z" fill="#273036"/>
<path d="M119.043 53.98H119.219C121.761 53.98 123.821 51.9197 123.821 49.3782V39.2503C123.821 37.931 122.751 36.8614 121.432 36.8614C120.113 36.8614 119.043 37.931 119.043 39.2503V53.98Z" stroke="black"/>
<path d="M179.281 41.4429C178.514 41.4429 177.755 41.2931 177.046 41.0022C176.338 40.7113 175.694 40.285 175.152 39.7474C174.61 39.2099 174.179 38.5718 173.886 37.8695C173.592 37.1672 173.441 36.4145 173.441 35.6543C173.441 34.8942 173.592 34.1414 173.886 33.4391C174.179 32.7369 174.61 32.0987 175.152 31.5612C175.694 31.0237 176.338 30.5973 177.046 30.3064C177.755 30.0155 178.514 29.8658 179.281 29.8658L179.281 34.6436C179.147 34.6436 179.015 34.6697 178.891 34.7205C178.767 34.7713 178.655 34.8458 178.56 34.9396C178.465 35.0335 178.39 35.1449 178.339 35.2675C178.288 35.3902 178.261 35.5216 178.261 35.6543C178.261 35.7871 178.288 35.9185 178.339 36.0411C178.39 36.1638 178.465 36.2752 178.56 36.369C178.655 36.4629 178.767 36.5373 178.891 36.5881C179.015 36.6389 179.147 36.6651 179.281 36.6651L179.281 41.4429Z" fill="#273036"/>
<path d="M182.619 48.2432C183.386 48.2432 184.146 48.0934 184.854 47.8025C185.563 47.5116 186.206 47.0853 186.749 46.5477C187.291 46.0102 187.721 45.3721 188.014 44.6698C188.308 43.9675 188.459 43.2148 188.459 42.4546C188.459 41.6945 188.308 40.9417 188.014 40.2394C187.721 39.5371 187.291 38.899 186.749 38.3615C186.206 37.824 185.563 37.3976 184.854 37.1067C184.146 36.8158 183.386 36.6661 182.619 36.6661L182.619 41.443C182.753 41.443 182.886 41.4692 183.01 41.52C183.134 41.5709 183.246 41.6454 183.341 41.7393C183.436 41.8332 183.511 41.9448 183.562 42.0675C183.613 42.1902 183.64 42.3218 183.64 42.4546C183.64 42.5875 183.613 42.719 183.562 42.8417C183.511 42.9645 183.436 43.076 183.341 43.1699C183.246 43.2639 183.134 43.3384 183.01 43.3892C182.886 43.4401 182.753 43.4662 182.619 43.4662L182.619 48.2432Z" fill="#273036"/>
<path d="M179.166 34.644C177.847 34.644 176.777 33.5745 176.777 32.2551C176.777 30.9358 177.847 29.8662 179.166 29.8662H188.457V30.0094C188.457 32.569 186.382 34.644 183.822 34.644H179.166Z" fill="#273036"/>
<path d="M179.166 34.644C177.847 34.644 176.777 33.5745 176.777 32.2551C176.777 30.9358 177.847 29.8662 179.166 29.8662H188.457V30.0094C188.457 32.569 186.382 34.644 183.822 34.644H179.166Z" stroke="black"/>
<path d="M179.352 41.4429C178.032 41.4429 176.963 40.3733 176.963 39.0539C176.963 37.7346 178.032 36.665 179.352 36.665H182.731C184.05 36.665 185.12 37.7346 185.12 39.0539C185.12 40.3733 184.05 41.4429 182.731 41.4429H179.352Z" fill="#273036"/>
<path d="M179.352 41.4429C178.032 41.4429 176.963 40.3733 176.963 39.0539C176.963 37.7346 178.032 36.665 179.352 36.665H182.731C184.05 36.665 185.12 37.7346 185.12 39.0539C185.12 40.3733 184.05 41.4429 182.731 41.4429H179.352Z" stroke="black"/>
<path d="M182.732 43.4644C184.052 43.4644 185.121 44.5339 185.121 45.8533C185.121 47.1726 184.052 48.2422 182.732 48.2422H173.442V48.099C173.442 45.5394 175.517 43.4644 178.076 43.4644H182.732Z" fill="#273036"/>
<path d="M182.732 43.4644C184.052 43.4644 185.121 44.5339 185.121 45.8533C185.121 47.1726 184.052 48.2422 182.732 48.2422H173.442V48.099C173.442 45.5394 175.517 43.4644 178.076 43.4644H182.732Z" stroke="black"/>
<path d="M196.219 41.4438C195.452 41.4438 194.692 41.2941 193.984 41.0032C193.275 40.7123 192.632 40.2859 192.089 39.7484C191.547 39.2109 191.117 38.5728 190.823 37.8705C190.53 37.1682 190.379 36.4155 190.379 35.6553C190.379 34.8951 190.53 34.1424 190.823 33.4401C191.117 32.7378 191.547 32.0997 192.089 31.5622C192.632 31.0247 193.275 30.5983 193.984 30.3074C194.692 30.0165 195.452 29.8668 196.219 29.8668L196.219 34.6446C196.085 34.6446 195.952 34.6707 195.828 34.7215C195.705 34.7723 195.592 34.8467 195.498 34.9406C195.403 35.0345 195.328 35.1459 195.277 35.2685C195.225 35.3911 195.199 35.5226 195.199 35.6553C195.199 35.788 195.225 35.9195 195.277 36.0421C195.328 36.1647 195.403 36.2762 195.498 36.37C195.592 36.4639 195.705 36.5383 195.828 36.5891C195.952 36.6399 196.085 36.666 196.219 36.666L196.219 41.4438Z" fill="#273036"/>
<path d="M199.557 48.2441C200.324 48.2441 201.083 48.0944 201.792 47.8035C202.5 47.5126 203.144 47.0862 203.686 46.5487C204.228 46.0112 204.658 45.3731 204.952 44.6708C205.245 43.9685 205.396 43.2158 205.396 42.4556C205.396 41.6954 205.245 40.9427 204.952 40.2404C204.658 39.5381 204.228 38.9 203.686 38.3625C203.144 37.825 202.5 37.3986 201.792 37.1077C201.083 36.8168 200.324 36.6671 199.557 36.6671L199.557 41.444C199.691 41.444 199.824 41.4702 199.947 41.521C200.071 41.5718 200.184 41.6463 200.278 41.7403C200.373 41.8342 200.448 41.9457 200.5 42.0685C200.551 42.1912 200.577 42.3228 200.577 42.4556C200.577 42.5884 200.551 42.72 200.5 42.8427C200.448 42.9655 200.373 43.077 200.278 43.1709C200.184 43.2649 200.071 43.3394 199.947 43.3902C199.824 43.441 199.691 43.4672 199.557 43.4672L199.557 48.2441Z" fill="#273036"/>
<path d="M196.104 34.645C194.784 34.645 193.715 33.5755 193.715 32.2561C193.715 30.9367 194.784 29.8672 196.104 29.8672H205.394V30.0104C205.394 32.57 203.319 34.645 200.76 34.645H196.104Z" fill="#273036"/>
<path d="M196.104 34.645C194.784 34.645 193.715 33.5755 193.715 32.2561C193.715 30.9367 194.784 29.8672 196.104 29.8672H205.394V30.0104C205.394 32.57 203.319 34.645 200.76 34.645H196.104Z" stroke="black"/>
<path d="M196.289 41.4438C194.97 41.4438 193.9 40.3743 193.9 39.0549C193.9 37.7356 194.97 36.666 196.289 36.666H199.668C200.988 36.666 202.057 37.7356 202.057 39.0549C202.057 40.3743 200.988 41.4438 199.668 41.4438H196.289Z" fill="#273036"/>
<path d="M196.289 41.4438C194.97 41.4438 193.9 40.3743 193.9 39.0549C193.9 37.7356 194.97 36.666 196.289 36.666H199.668C200.988 36.666 202.057 37.7356 202.057 39.0549C202.057 40.3743 200.988 41.4438 199.668 41.4438H196.289Z" stroke="black"/>
<path d="M199.67 43.4653C200.989 43.4653 202.059 44.5349 202.059 45.8543C202.059 47.1736 200.989 48.2432 199.67 48.2432H190.379V48.1C190.379 45.5403 192.454 43.4653 195.014 43.4653H199.67Z" fill="#273036"/>
<path d="M199.67 43.4653C200.989 43.4653 202.059 44.5349 202.059 45.8543C202.059 47.1736 200.989 48.2432 199.67 48.2432H190.379V48.1C190.379 45.5403 192.454 43.4653 195.014 43.4653H199.67Z" stroke="black"/>
</svg>
